<svg xmlns="http://www.w3.org/2000/svg" width="830.215" height="299.435" viewBox="0 0 830.215 299.435">
  <g id="Grupo_5627" data-name="Grupo 5627" transform="translate(-36.54 -60)">
    <path id="Trazado_230" data-name="Trazado 230" d="M106.75,49.606A15.865,15.865,0,0,0,90.887,65.469V171.885a15.863,15.863,0,1,0,31.726,0V65.469A15.865,15.865,0,0,0,106.75,49.606" transform="translate(111.525 100.926)" fill="#fff"/>
    <path id="Trazado_231" data-name="Trazado 231" d="M362.412,49.606H340.118a44.378,44.378,0,0,0-44.327,44.326v77.953a15.863,15.863,0,1,0,31.726,0V93.932a12.614,12.614,0,0,1,12.6-12.6h22.294a15.863,15.863,0,1,0,0-31.726" transform="translate(280.577 100.926)" fill="#fff"/>
    <path id="Trazado_232" data-name="Trazado 232" d="M366.946.718a15.864,15.864,0,0,0-15.863,15.863V212.219a15.862,15.862,0,1,0,31.724,0V16.581A15.864,15.864,0,0,0,366.946.718" transform="translate(326.195 60.592)" fill="#fff"/>
    <path id="Trazado_233" data-name="Trazado 233" d="M203.826,49.606H167.646a44.231,44.231,0,0,0-44.18,44.18v78.1a15.863,15.863,0,0,0,31.726,0v-78.1a12.465,12.465,0,0,1,12.454-12.454h36.179a12.47,12.47,0,0,1,12.46,12.454v78.1a15.863,15.863,0,1,0,31.726,0v-78.1a44.232,44.232,0,0,0-44.186-44.18" transform="translate(138.404 100.926)" fill="#fff"/>
    <path id="Trazado_234" data-name="Trazado 234" d="M298.3,50.853H249.642A44.787,44.787,0,0,0,204.9,95.592v48.661a44.787,44.787,0,0,0,44.739,44.739h25.439a15.863,15.863,0,0,0,0-31.726H249.642a13.028,13.028,0,0,1-13.012-13.013V95.592a13.028,13.028,0,0,1,13.012-13.012H298.3a13.03,13.03,0,0,1,13.018,13.012v75.266a15.862,15.862,0,0,0,31.725,0V95.592A44.791,44.791,0,0,0,298.3,50.853" transform="translate(205.592 101.955)" fill="#fff"/>
    <path id="Trazado_235" data-name="Trazado 235" d="M461.214,171.885a15.866,15.866,0,0,0-15.863-15.863H427.841a12.47,12.47,0,0,1-12.454-12.46V65.469a15.863,15.863,0,0,0-31.727,0v78.093a44.233,44.233,0,0,0,44.181,44.186h17.509a15.866,15.866,0,0,0,15.863-15.863" transform="translate(353.073 100.926)" fill="#fff"/>
    <path id="Trazado_236" data-name="Trazado 236" d="M473.34,49.606a15.865,15.865,0,0,0-15.863,15.863V209.543a17.261,17.261,0,0,1-17.245,17.239H429.194a15.863,15.863,0,0,0,0,31.726h11.038A49.024,49.024,0,0,0,489.2,209.543V65.469A15.865,15.865,0,0,0,473.34,49.606" transform="translate(377.552 100.926)" fill="#fff"/>
    <path id="Trazado_237" data-name="Trazado 237" d="M44.743,230.71H93.4a44.787,44.787,0,0,0,44.739-44.739V137.31A44.787,44.787,0,0,0,93.4,92.571H67.851a15.863,15.863,0,1,0,0,31.726H93.4a13.028,13.028,0,0,1,13.012,13.012v48.661A13.028,13.028,0,0,1,93.4,198.983H44.743a13.03,13.03,0,0,1-13.018-13.012V15.863A15.862,15.862,0,1,0,0,15.863V185.971A44.79,44.79,0,0,0,44.743,230.71" transform="translate(36.54 60)" fill="#fff"/>
  </g>
</svg>
